<svg width="720" height="720" viewBox="0 0 720 720" fill="none" xmlns="http://www.w3.org/2000/svg">
<path d="M418.509 480.673C418.509 486.58 418.778 492.756 419.316 499.2C419.854 505.107 421.199 510.746 423.351 516.116C426.041 520.949 429.538 524.977 433.842 528.199C438.684 531.421 445.14 533.032 453.211 533.032C462.895 533.032 471.503 529.81 479.035 523.366C480.649 527.662 481.725 531.689 482.263 535.448C483.339 538.67 483.877 542.429 483.877 546.726C483.877 555.318 482.263 563.91 479.035 572.502C476.345 580.557 471.772 587.807 465.316 594.251C458.86 600.695 450.52 606.065 440.298 610.361C430.614 614.12 418.509 616 403.982 616C371.702 616 346.684 606.334 328.93 587.001C311.175 567.669 302.298 541.087 302.298 507.255V312.662C302.298 293.33 305.257 277.488 311.175 265.137C317.094 252.785 324.895 243.119 334.579 236.138C344.263 228.62 355.292 223.518 367.667 220.833C380.579 217.611 393.491 216 406.404 216H419.316L418.509 480.673ZM207.877 616C175.596 616 150.579 606.334 132.825 587.001C115.608 567.669 107 541.087 107 507.255V200.662C107 181.33 109.959 165.488 115.877 153.137C121.795 140.785 129.596 131.119 139.281 124.138C148.965 116.62 159.994 111.518 172.368 108.833C184.743 105.611 197.386 104 210.298 104H223.211V480.673C223.211 486.58 223.48 492.756 224.018 499.2C225.094 505.107 226.708 510.746 228.86 516.116C231.55 520.949 235.047 524.977 239.351 528.199C244.193 531.421 250.649 533.032 258.719 533.032C268.404 533.032 277.012 529.81 284.544 523.366C286.158 527.662 287.234 531.689 287.772 535.448C288.848 538.67 289.386 542.429 289.386 546.726C289.386 554.781 287.772 563.104 284.544 571.697C281.854 579.752 277.281 587.27 270.825 594.251C264.368 600.695 255.76 606.065 245 610.361C234.778 614.12 222.404 616 207.877 616ZM613 396.899C613 422.676 610.041 444.156 604.123 461.341C598.205 478.525 590.135 492.219 579.912 502.422C569.69 512.088 557.854 519.069 544.404 523.366C530.953 527.662 516.696 529.81 501.632 529.81H496.79V200.662C496.79 181.33 499.749 165.488 505.667 153.137C511.585 140.785 519.386 131.119 529.07 124.138C538.754 116.62 549.784 111.518 562.158 108.833C574.532 105.611 587.175 104 600.088 104H613V396.899Z" fill="#B3FF00"/>
</svg>
